<svg width="653" height="600" viewBox="0 0 653 600" fill="none" xmlns="http://www.w3.org/2000/svg">
<path fill-rule="evenodd" clip-rule="evenodd" d="M67.7066 0H585.707V600H227.707C161.022 600 103.865 559.204 79.8321 501.209L78.944 502.096L77.5308 500.681L79.0151 499.199C71.7187 480.888 67.7066 460.912 67.7066 440V0ZM1.38283e-05 449.069L3.782 445.292L5.19518 446.708L1.41319 450.484L1.38283e-05 449.069ZM25.8436 449.069L29.6256 445.292L31.0388 446.708L27.2568 450.484L25.8436 449.069ZM51.6872 449.069L55.4692 445.292L56.8824 446.708L53.1004 450.484L51.6872 449.069ZM1.37687e-05 474.875L3.782 471.098L5.19518 472.514L1.41319 476.29L1.37687e-05 474.875ZM25.8436 474.875L29.6256 471.098L31.0388 472.514L27.2568 476.29L25.8436 474.875ZM51.6872 474.875L55.4692 471.098L56.8824 472.514L53.1004 476.29L51.6872 474.875ZM1.37687e-05 500.681L3.782 496.904L5.19518 498.319L1.41319 502.096L1.37687e-05 500.681ZM25.8436 500.681L29.6256 496.904L31.0388 498.319L27.2568 502.096L25.8436 500.681ZM51.6872 500.681L55.4692 496.904L56.8824 498.319L53.1004 502.096L51.6872 500.681ZM1.37687e-05 526.487L3.782 522.71L5.19518 524.125L1.41319 527.902L1.37687e-05 526.487ZM25.8436 526.487L29.6256 522.71L31.0388 524.125L27.2568 527.902L25.8436 526.487ZM51.6872 526.487L55.4692 522.71L56.8824 524.125L53.1004 527.902L51.6872 526.487ZM77.5308 526.487L81.3128 522.71L82.726 524.125L78.944 527.902L77.5308 526.487ZM1.37687e-05 552.292L3.782 548.516L5.19518 549.931L1.41319 553.708L1.37687e-05 552.292ZM25.8436 552.292L29.6256 548.516L31.0388 549.931L27.2568 553.708L25.8436 552.292ZM51.6872 552.292L55.4692 548.516L56.8824 549.931L53.1004 553.708L51.6872 552.292ZM77.5308 552.292L81.3128 548.516L82.726 549.931L78.944 553.708L77.5308 552.292ZM103.374 552.292L107.156 548.516L108.57 549.931L104.788 553.708L103.374 552.292ZM599.313 108.292L595.531 112.069L596.944 113.484L600.726 109.708L599.313 108.292ZM625.156 108.292L621.374 112.069L622.788 113.484L626.57 109.708L625.156 108.292ZM651 108.292L647.218 112.069L648.631 113.484L652.413 109.708L651 108.292ZM599.313 134.098L595.531 137.875L596.944 139.29L600.726 135.514L599.313 134.098ZM625.156 134.098L621.374 137.875L622.788 139.29L626.57 135.514L625.156 134.098ZM651 134.098L647.218 137.875L648.631 139.29L652.413 135.514L651 134.098ZM599.313 159.904L595.531 163.681L596.944 165.096L600.726 161.319L599.313 159.904ZM625.156 159.904L621.374 163.681L622.788 165.096L626.57 161.319L625.156 159.904ZM651 159.904L647.218 163.681L648.631 165.096L652.413 161.319L651 159.904ZM599.313 185.71L595.531 189.486L596.944 190.902L600.726 187.125L599.313 185.71ZM625.156 185.71L621.374 189.486L622.788 190.902L626.57 187.125L625.156 185.71ZM651 185.71L647.218 189.486L648.631 190.902L652.413 187.125L651 185.71ZM599.313 211.516L595.531 215.292L596.944 216.708L600.726 212.931L599.313 211.516ZM625.156 211.516L621.374 215.292L622.788 216.708L626.57 212.931L625.156 211.516ZM651 211.516L647.218 215.292L648.631 216.708L652.413 212.931L651 211.516Z" fill="#34251F"/>
</svg>
