<svg width="37" height="36" viewBox="0 0 37 36" fill="none" xmlns="http://www.w3.org/2000/svg">
<path d="M4.79441 6.89715L0.504675 12.6168V32.6356C0.504675 33.3941 0.805977 34.1215 1.3423 34.6578C1.87862 35.1941 2.60603 35.4954 3.3645 35.4954H23.3833C24.1418 35.4954 24.8692 35.1941 25.4055 34.6578C25.9418 34.1215 26.2431 33.3941 26.2431 32.6356V12.6168L21.9534 6.89715H4.79441Z" stroke="#34251F" stroke-linecap="round" stroke-linejoin="round"/>
<path d="M0.504675 12.6169H26.2431" stroke="#34251F" stroke-linecap="round" stroke-linejoin="round"/>
<path d="M19.0935 18.3366C19.0935 19.8536 18.4909 21.3084 17.4183 22.381C16.3456 23.4537 14.8908 24.0563 13.3739 24.0563C11.8569 24.0563 10.4021 23.4537 9.32947 22.381C8.25682 21.3084 7.65422 19.8536 7.65422 18.3366" stroke="#34251F" stroke-linecap="round" stroke-linejoin="round"/>
<circle cx="28.5141" cy="8.0748" r="8.0748" fill="#C20A0A"/>
<path d="M27.0054 10.1724H28.1954V7.11945C28.1954 6.96992 28.1997 6.81346 28.2082 6.65008L27.5069 7.21914C27.4616 7.25514 27.4163 7.28145 27.3709 7.29806C27.3256 7.31191 27.2817 7.31883 27.2392 7.31883C27.1655 7.31883 27.0989 7.3036 27.0394 7.27314C26.9828 7.23991 26.9403 7.20529 26.9119 7.1693L26.4954 6.62931L28.4249 5.04675H29.5129V10.1724H30.5328V11.1029H27.0054V10.1724Z" fill="white"/>
</svg>
